<?xml version="1.0" standalone="no"?>
<!DOCTYPE svg PUBLIC "-//W3C//DTD SVG 20010904//EN"
 "http://www.w3.org/TR/2001/REC-SVG-20010904/DTD/svg10.dtd">
<svg version="1.0" xmlns="http://www.w3.org/2000/svg"
 width="47.000000pt" height="41.000000pt" viewBox="0 0 47.000000 41.000000"
 preserveAspectRatio="xMidYMid meet">
<metadata>
Created by potrace 1.16, written by Peter Selinger 2001-2019
</metadata>
<g transform="translate(0.000000,41.000000) scale(0.100000,-0.100000)"
fill="#000000" stroke="none">
<path d="M149 321 c-51 -52 -34 -128 35 -151 24 -7 41 -8 61 0 26 10 32 7 70
-30 54 -53 68 -39 15 15 -37 38 -39 43 -30 74 27 96 -81 162 -151 92z m105
-12 c17 -14 26 -30 26 -50 0 -65 -80 -93 -119 -43 -27 35 -26 59 4 89 30 30
54 31 89 4z"/>
</g>
</svg>
